<?xml version="1.0" encoding="UTF-8" standalone="no"?>
<svg
   xmlns:dc="http://purl.org/dc/elements/1.1/"
   xmlns:cc="http://creativecommons.org/ns#"
   xmlns:rdf="http://www.w3.org/1999/02/22-rdf-syntax-ns#"
   xmlns:svg="http://www.w3.org/2000/svg"
   xmlns="http://www.w3.org/2000/svg"
   xmlns:sodipodi="http://sodipodi.sourceforge.net/DTD/sodipodi-0.dtd"
   xmlns:inkscape="http://www.inkscape.org/namespaces/inkscape"
   class="ionicon"
   viewBox="0 0 512 512"
   version="1.1"
   id="svg8"
   sodipodi:docname="home.svg"
   inkscape:version="1.0.2-2 (e86c870879, 2021-01-15)">
  <metadata
     id="metadata14">
    <rdf:RDF>
      <cc:Work
         rdf:about="">
        <dc:format>image/svg+xml</dc:format>
        <dc:type
           rdf:resource="http://purl.org/dc/dcmitype/StillImage" />
      </cc:Work>
    </rdf:RDF>
  </metadata>
  <defs
     id="defs12" />
  <sodipodi:namedview
     pagecolor="#ffffff"
     bordercolor="#666666"
     borderopacity="1"
     objecttolerance="10"
     gridtolerance="10"
     guidetolerance="10"
     inkscape:pageopacity="0"
     inkscape:pageshadow="2"
     inkscape:window-width="1920"
     inkscape:window-height="1003"
     id="namedview10"
     showgrid="false"
     inkscape:zoom="1.625"
     inkscape:cx="256"
     inkscape:cy="256"
     inkscape:window-x="-9"
     inkscape:window-y="-9"
     inkscape:window-maximized="1"
     inkscape:current-layer="svg8" />
  <title
     id="title2">Home</title>
  <path
     d="M261.56 101.28a8 8 0 00-11.06 0L66.4 277.15a8 8 0 00-2.47 5.79L63.9 448a32 32 0 0032 32H192a16 16 0 0016-16V328a8 8 0 018-8h80a8 8 0 018 8v136a16 16 0 0016 16h96.06a32 32 0 0032-32V282.94a8 8 0 00-2.47-5.79z"
     id="path4"
     style="fill:#0055d4" />
  <path
     d="M490.91 244.15l-74.8-71.56V64a16 16 0 00-16-16h-48a16 16 0 00-16 16v32l-57.92-55.38C272.77 35.14 264.71 32 256 32c-8.68 0-16.72 3.14-22.14 8.63l-212.7 203.5c-6.22 6-7 15.87-1.34 22.37A16 16 0 0043 267.56L250.5 69.28a8 8 0 0111.06 0l207.52 198.28a16 16 0 0022.59-.44c6.14-6.36 5.63-16.86-.76-22.97z"
     id="path6"
     style="fill:#0055d4;opacity:0.99" />
</svg>
